<?xml version="1.0" standalone="no"?>
<!DOCTYPE svg PUBLIC "-//W3C//DTD SVG 20010904//EN"
 "http://www.w3.org/TR/2001/REC-SVG-20010904/DTD/svg10.dtd">
<svg version="1.0" xmlns="http://www.w3.org/2000/svg"
 width="800.000000pt" height="800.000000pt" viewBox="0 0 800.000000 800.000000"
 preserveAspectRatio="xMidYMid meet">

<g transform="translate(0.000000,800.000000) scale(0.100000,-0.100000)"
fill="#000000" stroke="none">
<path d="M3935 7794 c-1580 -852 -3346 -1811 -3363 -1826 l-22 -21 0 -1947 0
-1947 23 -21 c12 -11 780 -431 1707 -933 1315 -711 1693 -912 1720 -912 28 0
394 194 1720 912 926 501 1694 921 1707 933 l23 21 0 1947 0 1947 -23 21 c-29
28 -3383 1842 -3417 1848 -16 3 -44 -5 -75 -22z m588 -450 c282 -152 516 -280
520 -284 4 -3 -183 -109 -415 -235 -233 -126 -749 -405 -1148 -620 -399 -216
-922 -499 -1163 -629 l-437 -237 -525 283 c-499 269 -523 284 -503 298 41 28
3133 1699 3146 1699 7 1 243 -123 525 -275z m1062 -575 c184 -100 335 -184
335 -188 0 -4 -615 -340 -1367 -746 -753 -407 -1462 -790 -1576 -852 -114 -62
-213 -113 -218 -113 -15 0 -688 364 -683 369 8 8 3159 1711 3166 1711 5 0 159
-81 343 -181z m1046 -565 c273 -148 505 -276 517 -284 21 -14 6 -24 -335 -208
-464 -249 -826 -445 -1893 -1022 -481 -260 -887 -478 -901 -483 -23 -9 -80 19
-540 267 -283 153 -517 281 -521 285 -8 7 3152 1720 3167 1716 6 -2 233 -124
506 -271z m-5365 -736 l524 -283 0 -748 0 -748 25 -24 c36 -37 72 -32 271 35
97 33 182 60 189 60 7 0 101 -126 210 -280 109 -154 209 -289 223 -300 42 -33
98 -23 124 23 10 17 14 180 18 714 l5 691 528 -285 527 -285 0 -1804 c0 -992
-3 -1804 -6 -1804 -3 0 -718 385 -1590 856 l-1584 857 0 1803 c0 992 3 1804 6
1804 4 0 242 -127 530 -282z m6004 -1522 l0 -1804 -202 -109 c-1879 -1016
-2951 -1595 -2963 -1599 -13 -5 -15 198 -15 1799 l0 1804 1583 856 c870 471
1585 856 1590 857 4 0 7 -812 7 -1804z m-4944 948 l344 -186 0 -586 c-1 -531
-2 -585 -16 -567 -9 11 -72 100 -141 198 -69 97 -135 184 -146 192 -33 23 -64
18 -208 -31 -74 -25 -146 -50 -161 -54 l-28 -9 0 615 c0 338 3 614 6 614 3 0
161 -84 350 -186z"/>
<path d="M964 2700 c-57 -23 -70 -93 -26 -138 15 -16 149 -95 297 -174 149
-80 417 -225 596 -322 347 -187 373 -197 417 -156 30 28 38 66 20 102 -12 25
-105 79 -623 360 -336 181 -621 331 -635 333 -14 3 -35 0 -46 -5z"/>
<path d="M964 2390 c-52 -21 -69 -88 -34 -132 30 -38 467 -272 509 -272 66 0
107 92 64 142 -22 25 -458 262 -493 267 -14 3 -35 0 -46 -5z"/>
</g>
</svg>
