<?xml version="1.0" standalone="no"?>
<!DOCTYPE svg PUBLIC "-//W3C//DTD SVG 20010904//EN"
 "http://www.w3.org/TR/2001/REC-SVG-20010904/DTD/svg10.dtd">
<svg version="1.0" xmlns="http://www.w3.org/2000/svg"
 width="640.000000pt" height="640.000000pt" viewBox="0 0 640.000000 640.000000"
 preserveAspectRatio="xMidYMid meet">

<g transform="translate(0.000000,640.000000) scale(0.100000,-0.100000)"
fill="#000000" stroke="none">
<path d="M835 5567 l-33 -33 -5 -544 c-5 -564 -11 -661 -57 -980 -34 -231 -98
-526 -161 -745 -11 -38 -141 -434 -289 -880 -148 -445 -274 -839 -280 -875 -5
-36 -10 -195 -10 -353 l0 -289 34 -34 34 -34 3132 0 3132 0 34 34 34 34 -2
954 c-3 951 -3 953 -24 999 -28 60 -93 125 -153 152 -38 18 -70 22 -183 25
l-138 4 0 899 c0 817 1 899 16 899 9 0 31 15 50 34 46 46 46 86 0 132 l-34 34
-632 0 -632 0 -34 -34 c-25 -24 -34 -43 -34 -66 0 -35 55 -100 84 -100 15 0
16 -82 16 -900 l0 -899 -411 -3 -411 -3 -24 -28 c-26 -30 -32 -83 -14 -118 28
-51 -15 -49 1174 -49 835 0 1111 -3 1131 -12 57 -26 55 7 55 -928 l0 -860
-250 0 -250 0 0 200 c0 177 2 200 16 200 9 0 31 15 50 34 46 46 46 86 0 132
l-34 34 -532 0 -532 0 -34 -34 c-46 -46 -46 -86 0 -132 19 -19 41 -34 50 -34
14 0 16 -23 16 -200 l0 -200 -250 0 -250 0 0 223 c0 122 -5 251 -11 287 -5 36
-135 443 -289 905 -168 508 -296 911 -323 1020 -93 368 -144 689 -167 1049
-10 160 -19 189 -68 207 -39 15 -88 2 -113 -29 -21 -26 -21 -34 -15 -172 14
-357 88 -805 197 -1208 22 -81 163 -514 312 -962 l272 -815 3 -252 3 -253
-1901 0 -1901 0 3 252 3 253 272 815 c149 448 290 881 312 962 127 469 191
904 208 1411 l6 207 965 0 964 0 34 34 c46 46 46 86 0 132 l-34 34 -966 0
-966 0 0 150 0 150 1100 0 1100 0 0 -216 0 -216 34 -34 c24 -25 43 -34 66 -34
23 0 42 9 66 34 l34 34 0 282 0 282 -34 34 -34 34 -1232 0 -1232 0 -33 -33z
m4865 -1667 l0 -900 -400 0 -400 0 0 900 0 900 400 0 400 0 0 -900z m-200
-2700 l0 -200 -300 0 -300 0 0 200 0 200 300 0 300 0 0 -200z"/>
<path d="M4534 2566 l-34 -34 0 -132 0 -132 34 -34 c25 -24 43 -34 66 -34 23
0 42 10 66 34 l34 34 0 132 0 132 -34 34 c-24 25 -43 34 -66 34 -23 0 -41 -9
-66 -34z"/>
<path d="M4934 2566 l-34 -34 0 -132 0 -132 34 -34 c25 -24 43 -34 66 -34 23
0 42 10 66 34 l34 34 0 132 0 132 -34 34 c-24 25 -43 34 -66 34 -23 0 -41 -9
-66 -34z"/>
<path d="M5334 2566 l-34 -34 0 -132 0 -132 34 -34 c25 -24 43 -34 66 -34 23
0 42 10 66 34 l34 34 0 132 0 132 -34 34 c-24 25 -43 34 -66 34 -23 0 -41 -9
-66 -34z"/>
<path d="M5734 2566 l-34 -34 0 -132 0 -132 34 -34 c25 -24 43 -34 66 -34 23
0 42 10 66 34 l34 34 0 132 0 132 -34 34 c-24 25 -43 34 -66 34 -23 0 -41 -9
-66 -34z"/>
</g>
</svg>
