<?xml version="1.0" standalone="no"?>
<!DOCTYPE svg PUBLIC "-//W3C//DTD SVG 20010904//EN"
 "http://www.w3.org/TR/2001/REC-SVG-20010904/DTD/svg10.dtd">
<svg version="1.0" xmlns="http://www.w3.org/2000/svg"
 width="640.000000pt" height="640.000000pt" viewBox="0 0 640.000000 640.000000"
 preserveAspectRatio="xMidYMid meet">

<g transform="translate(0.000000,640.000000) scale(0.100000,-0.100000)"
fill="#000000" stroke="none">
<path d="M1015 5745 c-418 -251 -772 -469 -787 -486 l-28 -29 0 -1081 0 -1081
34 -34 34 -34 282 0 282 0 34 34 34 34 0 816 0 816 900 0 900 0 0 -816 0 -816
34 -34 34 -34 282 0 282 0 34 34 34 34 0 1076 c0 733 -3 1082 -11 1098 -5 13
-24 33 -42 45 -18 12 -367 222 -776 467 -475 285 -753 446 -770 446 -17 0
-301 -165 -786 -455z m1494 -185 l691 -415 0 -972 0 -973 -150 0 -150 0 0 816
0 816 -34 34 -34 34 -1032 0 -1032 0 -34 -34 -34 -34 0 -816 0 -816 -150 0
-150 0 0 973 0 972 693 417 c380 229 699 416 708 415 9 -1 327 -189 708 -417z"/>
<path d="M3734 6166 l-34 -34 0 -1532 0 -1532 34 -34 34 -34 1182 0 1182 0 34
34 34 34 0 1532 0 1532 -34 34 -34 34 -1182 0 -1182 0 -34 -34z m2266 -1566
l0 -1400 -1050 0 -1050 0 0 1400 0 1400 1050 0 1050 0 0 -1400z"/>
<path d="M4200 5600 l0 -100 100 0 100 0 0 100 0 100 -100 0 -100 0 0 -100z"/>
<path d="M4600 5600 l0 -100 600 0 600 0 0 100 0 100 -600 0 -600 0 0 -100z"/>
<path d="M4200 5100 l0 -100 100 0 100 0 0 100 0 100 -100 0 -100 0 0 -100z"/>
<path d="M4600 5100 l0 -100 600 0 600 0 0 100 0 100 -600 0 -600 0 0 -100z"/>
<path d="M4200 4600 l0 -100 100 0 100 0 0 100 0 100 -100 0 -100 0 0 -100z"/>
<path d="M4600 4600 l0 -100 600 0 600 0 0 100 0 100 -600 0 -600 0 0 -100z"/>
<path d="M4200 4100 l0 -100 100 0 100 0 0 100 0 100 -100 0 -100 0 0 -100z"/>
<path d="M4600 4100 l0 -100 600 0 600 0 0 100 0 100 -600 0 -600 0 0 -100z"/>
<path d="M4200 3600 l0 -100 100 0 100 0 0 100 0 100 -100 0 -100 0 0 -100z"/>
<path d="M4600 3600 l0 -100 600 0 600 0 0 100 0 100 -600 0 -600 0 0 -100z"/>
<path d="M1434 4366 l-34 -34 0 -266 0 -266 -116 0 -116 0 -34 -34 -34 -34 0
-332 0 -332 34 -34 34 -34 632 0 632 0 34 34 34 34 0 332 0 332 -34 34 -34 34
-116 0 -116 0 0 266 0 266 -34 34 -34 34 -332 0 -332 0 -34 -34z m566 -366 l0
-200 -200 0 -200 0 0 200 0 200 200 0 200 0 0 -200z m-300 -600 l0 -200 -200
0 -200 0 0 200 0 200 200 0 200 0 0 -200z m600 0 l0 -200 -200 0 -200 0 0 200
0 200 200 0 200 0 0 -200z"/>
<path d="M3100 2600 l0 -200 -1215 0 -1215 0 -32 -29 -33 -29 -5 -318 -5 -318
-53 72 c-30 40 -58 72 -63 72 -5 0 -43 -25 -84 -55 l-75 -56 149 -198 c82
-109 162 -208 176 -220 35 -27 75 -27 110 0 14 12 94 111 176 220 l149 198
-80 61 -79 60 -57 -75 c-31 -41 -58 -75 -60 -75 -2 0 -4 110 -4 245 l0 245
1150 0 1150 0 0 -245 c0 -135 -2 -245 -4 -245 -2 0 -27 32 -56 70 -29 39 -56
70 -61 70 -5 0 -43 -25 -84 -55 l-75 -56 149 -198 c82 -109 162 -208 176 -220
35 -27 75 -27 110 0 14 12 94 111 176 220 l149 198 -80 61 -79 60 -57 -75
c-31 -41 -58 -75 -60 -75 -2 0 -4 110 -4 245 l0 245 1150 0 1150 0 0 -245 c0
-135 -2 -245 -4 -245 -2 0 -27 32 -56 70 -29 39 -56 70 -61 70 -5 0 -43 -25
-84 -55 l-75 -56 149 -198 c82 -109 162 -208 176 -220 35 -27 75 -27 110 0 14
12 94 111 176 220 l149 198 -80 61 -79 60 -58 -77 -58 -76 -5 317 -5 318 -33
29 -32 29 -1215 0 -1215 0 0 200 0 200 -100 0 -100 0 0 -200z"/>
<path d="M588 1185 c-213 -54 -365 -229 -384 -443 -27 -298 234 -563 533 -538
181 14 332 119 410 283 154 320 -67 690 -422 708 -51 3 -101 -1 -137 -10z
m251 -220 c59 -32 100 -75 133 -138 19 -34 23 -58 23 -127 0 -69 -4 -93 -23
-127 -33 -63 -74 -106 -134 -139 -47 -26 -62 -29 -138 -29 -93 0 -137 16 -203
74 -76 67 -115 198 -88 298 24 90 116 185 205 213 17 5 63 8 102 6 55 -2 82
-9 123 -31z"/>
<path d="M3088 1185 c-213 -54 -365 -229 -384 -443 -27 -298 234 -563 533
-538 181 14 332 119 410 283 154 320 -67 690 -422 708 -51 3 -101 -1 -137 -10z
m251 -220 c59 -32 100 -75 133 -138 19 -34 23 -58 23 -127 0 -69 -4 -93 -23
-127 -33 -63 -74 -106 -134 -139 -47 -26 -62 -29 -138 -29 -93 0 -137 16 -203
74 -76 67 -115 198 -88 298 24 90 116 185 205 213 17 5 63 8 102 6 55 -2 82
-9 123 -31z"/>
<path d="M5588 1185 c-213 -54 -365 -229 -384 -443 -27 -298 234 -563 533
-538 181 14 332 119 410 283 154 320 -67 690 -422 708 -51 3 -101 -1 -137 -10z
m251 -220 c59 -32 100 -75 133 -138 33 -60 33 -194 0 -254 -33 -63 -74 -106
-134 -139 -47 -26 -62 -29 -138 -29 -93 0 -137 16 -203 74 -76 67 -115 198
-88 298 24 90 116 185 205 213 17 5 63 8 102 6 55 -2 82 -9 123 -31z"/>
</g>
</svg>
