<?xml version="1.0" standalone="no"?>
<!DOCTYPE svg PUBLIC "-//W3C//DTD SVG 20010904//EN"
 "http://www.w3.org/TR/2001/REC-SVG-20010904/DTD/svg10.dtd">
<svg version="1.0" xmlns="http://www.w3.org/2000/svg"
 width="640.000000pt" height="640.000000pt" viewBox="0 0 640.000000 640.000000"
 preserveAspectRatio="xMidYMid meet">

<g transform="translate(0.000000,640.000000) scale(0.100000,-0.100000)"
fill="#000000" stroke="none">
<path d="M1629 6075 c-117 -29 -230 -99 -300 -187 -53 -67 -104 -175 -118
-252 -15 -84 -15 -4788 0 -4872 40 -220 222 -401 444 -444 43 -8 387 -10 1245
-8 l1185 3 69 27 c160 62 277 181 339 345 22 57 22 70 27 652 l5 594 80 22
c219 61 409 176 566 343 179 190 302 455 327 702 l7 75 77 3 77 3 60 -90 c65
-96 88 -112 126 -87 39 25 37 60 -6 122 -16 24 -29 45 -29 48 0 3 20 6 45 6
57 0 90 28 80 68 -9 39 -20 46 -75 52 l-49 5 36 57 c32 52 34 58 21 85 -10 22
-21 29 -50 31 -36 3 -38 2 -98 -87 l-61 -91 -79 0 -80 0 0 44 c0 106 -56 309
-122 441 -85 169 -237 348 -388 454 -102 72 -273 154 -381 182 l-89 24 0 627
c0 416 -4 645 -11 680 -26 128 -129 278 -239 348 -28 18 -81 45 -118 59 l-67
26 -1200 2 c-988 1 -1210 -1 -1256 -12z m2491 -132 c112 -46 209 -143 252
-253 17 -44 22 -82 26 -197 l4 -143 -1541 0 -1541 0 0 104 c0 57 5 127 10 157
31 165 156 299 320 345 35 10 301 12 1230 11 l1185 -2 55 -22z m280 -1149 l0
-436 -31 6 c-17 3 -60 6 -95 6 l-64 0 0 323 c0 238 -3 326 -12 335 -9 9 -319
12 -1334 12 -1189 0 -1324 -2 -1338 -16 -14 -14 -16 -193 -16 -1824 0 -1631 2
-1810 16 -1824 14 -14 149 -16 1338 -16 1015 0 1325 3 1334 12 9 9 12 84 12
275 l0 263 95 0 95 0 0 -370 0 -370 -1540 0 -1540 0 0 2030 0 2030 1540 0
1540 0 0 -436z m-310 -158 l0 -284 -47 -7 c-66 -10 -238 -67 -310 -103 -230
-117 -437 -321 -549 -545 -92 -181 -134 -358 -134 -557 0 -253 67 -473 208
-685 174 -262 462 -457 763 -519 l64 -13 3 -221 2 -222 -1230 0 -1230 0 0 155
0 155 814 0 c727 0 816 2 830 16 20 19 20 54 2 80 -14 18 -36 19 -830 22
l-816 2 0 1505 0 1505 1230 0 1230 0 0 -284z m307 -397 c426 -47 793 -342 929
-745 29 -86 54 -208 54 -260 l0 -34 -109 0 -108 0 -12 76 c-48 293 -227 531
-500 663 -131 63 -242 85 -409 79 -112 -5 -152 -10 -222 -33 -310 -99 -527
-332 -607 -651 -26 -105 -23 -305 5 -412 96 -360 392 -618 762 -663 445 -54
873 258 964 703 9 42 16 86 16 98 0 19 6 20 110 20 l110 0 0 -34 c0 -103 -53
-287 -122 -418 -147 -283 -396 -480 -717 -566 -85 -22 -115 -25 -266 -25 -153
0 -180 2 -270 26 -121 33 -295 116 -387 186 -304 231 -463 568 -445 945 12
270 116 510 305 708 244 255 572 376 919 337z m46 -355 c305 -68 546 -329 591
-636 l7 -48 -114 0 -114 0 -7 49 c-9 69 -76 197 -135 258 -216 226 -559 230
-776 9 -76 -78 -124 -162 -145 -258 -18 -80 -8 -238 18 -307 58 -149 181 -269
329 -323 71 -26 216 -35 296 -18 194 40 366 210 410 406 l14 59 112 3 112 3
-7 -48 c-11 -78 -43 -172 -87 -258 -49 -95 -186 -239 -280 -294 -224 -131
-499 -141 -731 -25 -377 189 -531 647 -342 1022 100 199 282 346 496 401 95
25 254 27 353 5z m4 -363 c115 -54 218 -178 239 -288 l7 -33 -185 0 c-150 0
-188 -3 -206 -16 -26 -18 -29 -60 -5 -86 14 -16 35 -18 206 -18 l189 0 -7 -37
c-20 -111 -115 -227 -228 -283 -120 -59 -276 -52 -393 16 -61 36 -141 126
-171 191 -55 122 -39 297 38 409 114 166 337 228 516 145z m-49 -2613 c-4
-116 -9 -154 -26 -198 -43 -110 -140 -207 -252 -253 l-55 -22 -1170 -3 c-872
-2 -1184 0 -1225 9 -128 27 -243 116 -299 231 -39 80 -51 144 -51 274 l0 104
1541 0 1541 0 -4 -142z"/>
<path d="M2566 5698 c-21 -30 -20 -54 4 -78 19 -19 33 -20 290 -20 257 0 271
1 290 20 24 24 25 48 4 78 -15 22 -17 22 -294 22 -277 0 -279 0 -294 -22z"/>
<path d="M2617 3902 c-425 -425 -587 -594 -587 -610 0 -28 34 -62 62 -62 16 0
185 162 610 587 621 620 616 615 570 656 -44 40 -40 44 -655 -571z"/>
<path d="M2202 3887 c-307 -308 -317 -321 -274 -360 43 -39 54 -30 360 276
306 306 317 321 276 361 -41 41 -55 30 -362 -277z"/>
<path d="M2752 954 c-85 -42 -132 -121 -132 -221 0 -216 267 -320 416 -161 65
69 85 146 59 233 -43 148 -204 218 -343 149z m175 -114 c40 -24 54 -50 55
-100 1 -70 -52 -123 -122 -122 -50 1 -76 15 -100 55 -69 112 55 236 167 167z"/>
<path d="M5285 5586 c-125 -31 -229 -115 -287 -233 -32 -65 -33 -73 -33 -183
0 -108 2 -119 31 -180 39 -81 96 -145 165 -187 198 -118 457 -60 580 130 56
86 72 150 67 261 -3 77 -9 101 -37 159 -88 182 -293 281 -486 233z m226 -137
c63 -27 141 -112 163 -175 51 -149 -19 -316 -161 -385 -70 -33 -189 -33 -257
0 -60 29 -117 85 -148 143 -33 61 -33 214 -1 273 79 149 251 210 404 144z"/>
<path d="M704 5160 c-56 -23 -72 -103 -29 -145 27 -28 88 -34 116 -12 43 33
48 106 11 141 -23 20 -70 28 -98 16z"/>
<path d="M5612 4233 c-7 -3 -19 -18 -28 -35 -50 -96 73 -183 144 -102 51 58
12 145 -65 143 -21 0 -44 -3 -51 -6z"/>
<path d="M799 2861 c-20 -20 -29 -39 -29 -61 0 -40 47 -90 85 -90 56 0 94 36
94 90 0 83 -91 120 -150 61z"/>
<path d="M5681 2326 c-53 -30 -64 -89 -25 -135 54 -65 154 -28 154 57 0 65
-73 110 -129 78z"/>
<path d="M600 2139 c-98 -39 -154 -147 -130 -248 43 -181 287 -224 384 -68 91
147 -9 328 -179 326 -27 0 -61 -5 -75 -10z m141 -138 c37 -37 38 -79 3 -120
-64 -76 -185 -9 -154 85 23 69 99 86 151 35z"/>
<path d="M5134 1160 c-56 -23 -72 -103 -29 -145 24 -25 73 -33 110 -19 20 8
45 56 45 88 0 54 -74 99 -126 76z"/>
<path d="M585 1101 c-60 -25 -77 -104 -32 -148 55 -55 151 -16 151 62 0 59
-67 108 -119 86z"/>
</g>
</svg>
