<?xml version="1.0" standalone="no"?>
<!DOCTYPE svg PUBLIC "-//W3C//DTD SVG 20010904//EN"
 "http://www.w3.org/TR/2001/REC-SVG-20010904/DTD/svg10.dtd">
<svg version="1.0" xmlns="http://www.w3.org/2000/svg"
 width="640.000000pt" height="640.000000pt" viewBox="0 0 640.000000 640.000000"
 preserveAspectRatio="xMidYMid meet">

<g transform="translate(0.000000,640.000000) scale(0.100000,-0.100000)"
fill="#000000" stroke="none">
<path d="M488 5798 c-9 -7 -94 -205 -187 -441 l-171 -427 0 -168 c0 -187 10
-244 62 -349 39 -80 132 -182 209 -229 l59 -37 0 -1467 c0 -1462 0 -1466 20
-1488 l21 -22 2699 0 c2687 0 2700 0 2720 20 20 20 20 33 20 1489 l0 1468 59
36 c115 72 220 216 256 353 10 41 15 108 15 226 l0 168 -171 427 c-93 236
-178 434 -187 441 -12 9 -124 12 -479 12 -450 0 -464 -1 -483 -20 -11 -11 -20
-33 -20 -50 0 -17 9 -39 20 -50 19 -19 33 -20 439 -20 323 0 421 -3 428 -12
13 -16 274 -671 269 -675 -1 -2 -1301 -2 -2888 -1 l-2886 3 136 340 137 340
1912 3 1912 2 20 26 c26 34 26 54 0 88 l-20 26 -1953 0 c-1546 0 -1956 -3
-1968 -12z m5642 -1045 c-1 -177 -40 -294 -128 -382 -253 -253 -674 -106 -724
251 -5 40 -14 80 -19 90 -19 35 -99 35 -118 0 -5 -10 -14 -50 -19 -90 -21
-146 -105 -268 -229 -331 -266 -134 -573 32 -615 331 -5 40 -14 80 -19 90 -19
35 -99 35 -118 0 -5 -10 -14 -50 -19 -90 -21 -146 -105 -268 -229 -331 -266
-134 -573 32 -615 331 -5 40 -14 80 -19 90 -19 35 -99 35 -118 0 -5 -10 -14
-50 -19 -90 -21 -146 -105 -268 -229 -331 -266 -134 -573 32 -615 331 -5 40
-14 80 -19 90 -19 35 -99 35 -118 0 -5 -10 -14 -50 -19 -90 -21 -146 -105
-268 -229 -331 -266 -134 -573 32 -615 331 -5 40 -14 80 -19 90 -19 35 -99 35
-118 0 -5 -10 -14 -50 -19 -90 -27 -194 -166 -340 -356 -373 -178 -31 -370 70
-447 236 -34 71 -48 152 -49 268 l0 77 2930 0 2930 0 0 -77z m-4908 -400 c57
-96 176 -186 303 -228 73 -25 90 -27 195 -22 136 5 204 27 307 97 60 41 130
113 162 167 11 17 11 17 22 0 62 -104 189 -201 316 -243 75 -24 92 -26 195
-22 134 6 203 28 305 98 60 41 130 113 162 167 11 17 11 17 22 0 62 -104 189
-201 316 -243 75 -24 92 -26 195 -22 134 6 203 28 305 98 60 41 130 113 162
167 11 17 11 17 22 0 62 -104 189 -201 316 -243 75 -24 92 -26 195 -22 134 6
203 28 305 98 60 41 130 113 162 167 11 17 11 17 22 0 33 -55 102 -126 164
-168 100 -68 199 -99 320 -99 l95 0 0 -185 0 -185 -2590 0 -2590 0 0 185 0
185 95 0 c77 0 112 5 177 27 105 35 208 108 268 190 25 34 47 62 50 62 3 1 13
-11 22 -26z m4568 -1908 l0 -1135 -257 2 -258 3 -5 968 c-5 944 -5 969 -24
983 -17 12 -120 14 -637 14 l-618 0 -20 -26 c-21 -27 -21 -31 -21 -985 l0
-959 -1670 0 -1670 0 0 1135 0 1135 2590 0 2590 0 0 -1135z m-662 578 l3 -113
-516 0 -515 0 0 115 0 115 513 -2 512 -3 3 -112z m0 -985 l-3 -723 -512 -3
-513 -2 0 725 0 725 515 0 515 0 -2 -722z"/>
<path d="M1130 3260 c-20 -20 -20 -33 -20 -760 0 -727 0 -740 20 -760 20 -20
33 -20 883 -20 l864 0 21 23 22 23 0 735 c0 726 0 736 -20 757 l-21 22 -864 0
c-852 0 -865 0 -885 -20z m810 -755 l0 -635 -340 0 -340 0 0 635 0 635 340 0
340 0 0 -635z m830 0 l0 -635 -340 0 -340 0 0 635 0 635 340 0 340 0 0 -635z"/>
<path d="M765 3225 c-22 -21 -25 -33 -25 -103 0 -97 20 -132 76 -132 58 0 74
26 74 124 0 69 -4 88 -21 110 -27 34 -71 35 -104 1z"/>
<path d="M784 2778 c-42 -20 -44 -42 -44 -447 0 -378 1 -389 21 -415 27 -34
79 -36 109 -4 19 21 20 33 20 425 l0 404 -25 24 c-26 27 -47 30 -81 13z"/>
<path d="M806 708 c-22 -31 -20 -74 4 -98 20 -20 31 -20 2416 -18 l2397 3 20
27 c22 29 18 65 -9 92 -14 14 -248 16 -2414 16 l-2399 0 -15 -22z"/>
</g>
</svg>
