<?xml version="1.0" standalone="no"?>
<!DOCTYPE svg PUBLIC "-//W3C//DTD SVG 20010904//EN"
 "http://www.w3.org/TR/2001/REC-SVG-20010904/DTD/svg10.dtd">
<svg version="1.0" xmlns="http://www.w3.org/2000/svg"
 width="640.000000pt" height="640.000000pt" viewBox="0 0 640.000000 640.000000"
 preserveAspectRatio="xMidYMid meet">

<g transform="translate(0.000000,640.000000) scale(0.100000,-0.100000)"
fill="#000000" stroke="none">
<path d="M1820 5646 c-1077 -439 -1362 -558 -1387 -583 l-33 -31 0 -2316 0
-2316 -100 0 -100 0 0 -100 0 -100 3000 0 3000 0 0 100 0 100 -100 0 -100 0 0
2315 0 2315 -27 30 c-23 24 -279 131 -1392 585 -750 305 -1374 555 -1385 554
-12 0 -631 -249 -1376 -553z m2692 -187 l1288 -524 0 -2267 0 -2268 -100 0
-100 0 0 2166 0 2166 -34 34 -34 34 -2332 0 -2332 0 -34 -34 -34 -34 0 -2166
0 -2166 -100 0 -100 0 0 2268 0 2267 1293 527 c710 290 1301 526 1312 524 11
-1 599 -238 1307 -527z m888 -2959 l0 -2100 -150 0 -150 0 0 163 c0 125 -3
167 -14 183 -13 18 -13 27 0 71 12 42 14 127 12 504 -3 446 -3 455 -25 499
-12 25 -28 53 -35 63 -10 14 -10 20 0 35 7 9 23 37 35 62 22 45 22 49 22 520
0 471 0 475 -22 520 -12 25 -28 53 -35 63 -10 14 -10 20 0 35 7 9 23 37 35 62
22 45 22 49 22 520 0 465 0 476 -21 521 -28 60 -93 125 -153 153 -45 21 -56
21 -521 21 -471 0 -475 0 -520 -22 -25 -12 -53 -28 -62 -35 -15 -10 -21 -10
-35 0 -10 7 -38 23 -63 35 -45 22 -49 22 -520 22 -471 0 -475 0 -520 -22 -25
-12 -53 -28 -62 -35 -15 -10 -21 -10 -35 0 -10 7 -38 23 -63 35 -45 22 -49 22
-520 22 -465 0 -476 0 -521 -21 -60 -28 -125 -93 -153 -153 -21 -45 -21 -56
-21 -521 0 -471 0 -475 22 -520 12 -25 28 -53 35 -62 10 -15 10 -21 0 -35 -7
-10 -23 -38 -35 -63 -22 -45 -22 -49 -22 -520 0 -471 0 -475 22 -520 12 -25
28 -53 35 -62 10 -15 10 -21 0 -35 -7 -10 -23 -38 -35 -63 -22 -44 -22 -53
-25 -499 -2 -377 0 -462 12 -504 13 -44 13 -53 0 -71 -11 -16 -14 -58 -14
-183 l0 -163 -150 0 -150 0 0 2100 0 2100 2200 0 2200 0 0 -2100z m-3800 1550
l0 -150 100 0 100 0 0 150 0 150 310 0 c333 0 350 -2 376 -51 19 -37 21 -853
2 -894 -25 -54 -31 -55 -488 -55 -457 0 -463 1 -488 55 -9 19 -12 141 -12 448
1 451 1 455 51 483 48 27 49 24 49 -136z m1300 0 l0 -150 100 0 100 0 0 150 0
150 260 0 c280 0 301 -3 326 -51 19 -37 21 -853 2 -894 -25 -54 -31 -55 -488
-55 -457 0 -463 1 -488 55 -18 39 -16 861 2 894 20 36 55 50 124 51 l62 0 0
-150z m1200 0 l0 -150 100 0 100 0 0 150 0 150 260 0 c280 0 301 -3 326 -51
19 -37 21 -853 2 -894 -25 -54 -31 -55 -488 -55 -457 0 -463 1 -488 55 -18 39
-16 861 2 894 20 36 55 50 124 51 l62 0 0 -150z m-2500 -1200 l0 -150 100 0
100 0 0 150 0 150 310 0 c333 0 350 -2 376 -51 19 -37 21 -853 2 -894 -25 -54
-31 -55 -488 -55 -457 0 -463 1 -488 55 -9 19 -12 141 -12 448 1 451 1 455 51
483 48 27 49 24 49 -136z m1300 0 l0 -150 100 0 100 0 0 150 0 150 260 0 c280
0 301 -3 326 -51 19 -37 21 -853 2 -894 -25 -54 -31 -55 -488 -55 -457 0 -463
1 -488 55 -18 39 -16 861 2 894 20 36 55 50 124 51 l62 0 0 -150z m1200 0 l0
-150 100 0 100 0 0 150 0 150 260 0 c280 0 301 -3 326 -51 19 -37 21 -853 2
-894 -25 -54 -31 -55 -488 -55 -457 0 -463 1 -488 55 -18 39 -16 861 2 894 20
36 55 50 124 51 l62 0 0 -150z m-2500 -1200 l0 -150 100 0 100 0 0 150 0 150
310 0 c333 0 350 -2 376 -51 19 -37 21 -853 2 -894 -25 -54 -31 -55 -488 -55
-457 0 -463 1 -488 55 -9 19 -12 141 -12 448 1 451 1 455 51 483 48 27 49 24
49 -136z m1300 0 l0 -150 100 0 100 0 0 150 0 150 260 0 c280 0 301 -3 326
-51 19 -37 21 -853 2 -894 -25 -54 -31 -55 -488 -55 -457 0 -463 1 -488 55
-18 39 -16 861 2 894 20 36 55 50 124 51 l62 0 0 -150z m1200 0 l0 -150 100 0
100 0 0 150 0 150 260 0 c280 0 301 -3 326 -51 19 -37 21 -853 2 -894 -25 -54
-31 -55 -488 -55 -457 0 -463 1 -488 55 -18 39 -16 861 2 894 20 36 55 50 124
51 l62 0 0 -150z m800 -1150 l0 -100 -1700 0 -1700 0 0 100 0 100 1700 0 1700
0 0 -100z"/>
<path d="M2915 5594 c-196 -79 -267 -112 -287 -135 l-28 -29 0 -181 0 -181 34
-34 34 -34 532 0 532 0 34 34 34 34 0 181 0 181 -27 29 c-21 23 -92 55 -293
136 -145 58 -274 105 -285 104 -11 0 -137 -48 -280 -105z m487 -181 l198 -78
0 -67 0 -68 -400 0 -400 0 0 68 0 67 193 77 c105 42 197 77 202 78 6 0 99 -34
207 -77z"/>
</g>
</svg>
