<?xml version="1.0" standalone="no"?>
<!DOCTYPE svg PUBLIC "-//W3C//DTD SVG 20010904//EN"
 "http://www.w3.org/TR/2001/REC-SVG-20010904/DTD/svg10.dtd">
<svg version="1.0" xmlns="http://www.w3.org/2000/svg"
 width="1198.000000pt" height="458.000000pt" viewBox="0 0 1198.000000 458.000000"
 preserveAspectRatio="xMidYMid meet">

<g transform="translate(0.000000,458.000000) scale(0.100000,-0.100000)"
fill="#000000" stroke="none">
<path d="M774 4249 c-67 -25 -123 -75 -159 -140 -27 -49 -30 -63 -30 -144 0
-81 3 -95 29 -143 33 -60 76 -101 139 -134 35 -19 58 -23 132 -23 81 0 95 3
143 29 99 55 153 139 160 251 14 224 -205 385 -414 304z"/>
<path d="M2145 4261 c-136 -35 -224 -140 -233 -277 -6 -91 15 -156 70 -218 63
-72 116 -99 208 -104 108 -6 168 15 236 82 120 121 126 297 12 421 -73 80
-197 121 -293 96z"/>
<path d="M1315 3504 c-367 -67 -693 -313 -865 -653 -133 -265 -156 -629 -58
-916 72 -211 236 -437 412 -567 105 -79 297 -172 416 -203 473 -123 949 40
1259 430 75 94 170 284 205 410 96 341 29 719 -179 1010 -183 257 -466 437
-770 490 -108 19 -312 18 -420 -1z m441 -456 c221 -65 425 -266 494 -487 66
-211 35 -468 -77 -639 -56 -85 -157 -189 -230 -238 -64 -42 -179 -89 -260
-104 -38 -8 -113 -11 -195 -8 -149 5 -222 25 -347 94 -76 43 -200 162 -252
244 -85 133 -114 239 -114 420 0 113 4 147 24 210 85 277 311 480 589 530 86
16 278 4 368 -22z"/>
<path d="M6765 3404 c-410 -63 -672 -338 -761 -799 -27 -140 -25 -436 4 -578
40 -191 95 -317 199 -454 105 -139 268 -243 456 -290 88 -23 124 -26 262 -27
156 0 248 12 340 45 322 117 524 378 591 764 23 131 23 392 0 527 -39 229
-126 417 -260 556 -141 148 -293 224 -513 257 -121 18 -195 17 -318 -1z m352
-312 c219 -84 324 -335 323 -771 -1 -416 -90 -637 -297 -733 -59 -28 -80 -32
-176 -36 -128 -5 -197 7 -279 50 -117 62 -207 201 -245 378 -27 125 -26 578 1
695 48 206 132 335 263 404 88 45 308 53 410 13z"/>
<path d="M10545 3404 c-203 -32 -359 -107 -491 -240 -137 -136 -222 -307 -270
-544 -25 -119 -25 -459 -1 -580 67 -335 230 -571 481 -693 147 -72 245 -91
451 -91 129 1 176 5 243 22 170 44 296 114 408 228 195 197 284 454 284 824 0
515 -202 873 -575 1020 -165 65 -343 83 -530 54z m367 -321 c150 -69 227 -186
279 -423 20 -93 23 -131 23 -340 0 -217 -2 -243 -26 -347 -33 -141 -77 -233
-143 -299 -89 -90 -181 -124 -335 -124 -152 0 -236 30 -330 116 -86 80 -139
196 -171 374 -20 110 -18 490 4 595 48 237 125 366 261 435 87 44 119 49 256
46 104 -2 121 -6 182 -33z"/>
<path d="M4152 3378 c-19 -19 -17 -2071 2 -2087 9 -8 70 -11 197 -9 l183 3 13
25 c10 19 13 98 12 314 0 267 1 290 18 310 10 11 37 41 58 66 22 25 85 99 139
163 62 73 105 117 115 115 14 -3 60 -81 203 -348 28 -52 74 -135 101 -185 28
-49 76 -137 107 -195 31 -58 74 -136 95 -175 20 -38 45 -76 53 -82 24 -19 428
-18 435 0 8 22 -39 113 -265 517 -36 63 -121 219 -190 345 -69 127 -151 275
-183 330 -89 157 -95 137 101 360 245 280 428 495 433 507 10 29 -33 38 -188
38 -86 0 -166 -3 -178 -6 -12 -4 -189 -208 -429 -496 -231 -278 -411 -485
-415 -481 -5 5 -10 224 -12 486 -2 412 -4 479 -17 487 -23 15 -373 13 -388 -2z"/>
<path d="M8272 3382 c-10 -7 -12 -219 -12 -1046 0 -571 2 -1042 6 -1047 9 -15
1387 -12 1402 3 17 17 17 274 0 285 -7 4 -233 10 -503 13 l-490 5 -5 888 c-4
775 -7 889 -20 897 -18 12 -360 13 -378 2z"/>
<path d="M2110 1011 c-216 -71 -297 -316 -162 -488 78 -98 220 -139 343 -98
72 24 159 110 182 179 69 202 -63 402 -273 412 -36 2 -76 0 -90 -5z"/>
<path d="M757 996 c-134 -48 -216 -173 -204 -312 9 -112 72 -205 173 -255 73
-36 188 -34 266 4 103 51 159 137 166 258 4 68 1 84 -22 135 -35 77 -77 120
-151 155 -68 33 -160 39 -228 15z"/>
</g>
</svg>
